<svg width="40" height="40" viewBox="0 0 40 40" fill="none" xmlns="http://www.w3.org/2000/svg">
<path d="M36.1169 11.5834C35.0503 7.96671 32.0336 4.95004 28.4169 3.88338C25.6669 3.08338 23.7669 3.15004 22.4503 4.13338C20.8669 5.31671 20.6836 7.45004 20.6836 8.96671V13.1167C20.6836 17.2167 22.5503 19.3 26.2169 19.3H31.0003C32.5003 19.3 34.6503 19.1167 35.8336 17.5334C36.8503 16.2334 36.9336 14.3334 36.1169 11.5834Z" fill="#4A3AFF"/>
<path opacity="0.4" d="M31.517 22.2667C31.0837 21.7667 30.4503 21.4833 29.8003 21.4833H23.8337C20.9003 21.4833 18.517 19.1 18.517 16.1667V10.2C18.517 9.55001 18.2337 8.91667 17.7337 8.48334C17.2503 8.05001 16.5837 7.85001 15.9503 7.93334C12.0337 8.43334 8.43365 10.5833 6.08365 13.8167C3.71699 17.0667 2.85032 21.0333 3.60032 25C4.68365 30.7333 9.26699 35.3167 15.017 36.4C15.9337 36.5833 16.8503 36.6667 17.767 36.6667C20.7837 36.6667 23.7003 35.7333 26.1837 33.9167C29.417 31.5667 31.567 27.9667 32.067 24.05C32.1503 23.4 31.9503 22.75 31.517 22.2667Z" fill="#4A3AFF"/>
</svg>
