<svg width="40" height="40" viewBox="0 0 40 40" fill="none" xmlns="http://www.w3.org/2000/svg">
<path opacity="0.4" d="M36.101 17.4L34.4676 24.3666C33.0676 30.3833 30.301 32.8166 25.101 32.3166C24.2676 32.25 23.3676 32.1 22.401 31.8666L19.601 31.2C12.651 29.55 10.501 26.1166 12.1343 19.15L13.7676 12.1666C14.101 10.75 14.501 9.51664 15.001 8.49997C16.951 4.46664 20.2676 3.38331 25.8343 4.69997L28.6176 5.34997C35.601 6.98331 37.7343 10.4333 36.101 17.4Z" fill="#4A3AFF"/>
<path d="M25.1006 32.3167C24.0672 33.0167 22.7672 33.6 21.1839 34.1167L18.5506 34.9833C11.9339 37.1167 8.45057 35.3333 6.30057 28.7167L4.16724 22.1333C2.0339 15.5167 3.80057 12.0167 10.4172 9.88333L13.0506 9.01667C13.7339 8.8 14.3839 8.61667 15.0006 8.5C14.5006 9.51667 14.1006 10.75 13.7672 12.1667L12.1339 19.15C10.5006 26.1167 12.6506 29.55 19.6006 31.2L22.4006 31.8667C23.3672 32.1 24.2672 32.25 25.1006 32.3167Z" fill="#4A3AFF"/>
<path d="M29.1503 17.5167C29.0503 17.5167 28.9503 17.5 28.8336 17.4833L20.7503 15.4333C20.0836 15.2667 19.6836 14.5833 19.8503 13.9167C20.0169 13.25 20.7003 12.85 21.3669 13.0167L29.4503 15.0667C30.1169 15.2333 30.5169 15.9167 30.3503 16.5833C30.2169 17.1333 29.7003 17.5167 29.1503 17.5167Z" fill="#4A3AFF"/>
<path d="M24.2666 23.1499C24.1666 23.1499 24.0666 23.1333 23.9499 23.1166L19.0999 21.8833C18.4332 21.7166 18.0332 21.0333 18.1999 20.3666C18.3666 19.6999 19.0499 19.2999 19.7166 19.4666L24.5666 20.6999C25.2332 20.8666 25.6332 21.5499 25.4666 22.2166C25.3332 22.7833 24.8332 23.1499 24.2666 23.1499Z" fill="#4A3AFF"/>
</svg>
