<svg width="62" height="62" viewBox="0 0 62 62" fill="none" xmlns="http://www.w3.org/2000/svg">
<rect width="62" height="62" rx="31" fill="#F0EEFF"/>
<path opacity="0.4" d="M38.1433 25.5363C38.0529 25.5234 37.9625 25.5234 37.8721 25.5363C35.87 25.4717 34.2812 23.8313 34.2812 21.8163C34.2812 19.7625 35.9475 18.0834 38.0142 18.0834C40.0679 18.0834 41.7471 19.7496 41.7471 21.8163C41.7342 23.8313 40.1454 25.4717 38.1433 25.5363Z" fill="#4A3AFF"/>
<path opacity="0.4" d="M42.3535 34.4875C40.9068 35.4563 38.8789 35.8179 37.006 35.5725C37.4968 34.5134 37.7552 33.3379 37.7681 32.0979C37.7681 30.8063 37.4839 29.5792 36.9414 28.5071C38.8531 28.2488 40.881 28.6104 42.3406 29.5792C44.3814 30.9225 44.3814 33.1313 42.3535 34.4875Z" fill="#4A3AFF"/>
<path opacity="0.4" d="M23.8186 25.5363C23.909 25.5234 23.9994 25.5234 24.0898 25.5363C26.0919 25.4717 27.6807 23.8313 27.6807 21.8163C27.6807 19.7625 26.0144 18.0834 23.9478 18.0834C21.894 18.0834 20.2148 19.7496 20.2148 21.8163C20.2278 23.8313 21.8165 25.4717 23.8186 25.5363Z" fill="#4A3AFF"/>
<path opacity="0.4" d="M23.9607 32.098C23.9607 33.3509 24.2319 34.5392 24.7228 35.6113C22.9015 35.805 21.0028 35.4175 19.6078 34.5005C17.5669 33.1442 17.5669 30.9354 19.6078 29.5792C20.9899 28.6492 22.9403 28.2746 24.7744 28.4813C24.2449 29.5663 23.9607 30.7934 23.9607 32.098Z" fill="#4A3AFF"/>
<path d="M31.1552 35.9987C31.0519 35.9858 30.9356 35.9858 30.8194 35.9987C28.4427 35.9212 26.5439 33.9708 26.5439 31.5683C26.5439 29.1142 28.5202 27.125 30.9873 27.125C33.4414 27.125 35.4306 29.1142 35.4306 31.5683C35.4306 33.9708 33.5448 35.9212 31.1552 35.9987Z" fill="#4A3AFF"/>
<path d="M26.957 38.6725C25.0065 39.9771 25.0065 42.1213 26.957 43.4129C29.1786 44.8984 32.8211 44.8984 35.0428 43.4129C36.9932 42.1084 36.9932 39.9642 35.0428 38.6725C32.834 37.1871 29.1915 37.1871 26.957 38.6725Z" fill="#4A3AFF"/>
</svg>
