<svg width="46" height="46" viewBox="0 0 46 46" fill="none" xmlns="http://www.w3.org/2000/svg">
<rect width="46" height="46" rx="23" fill="#F1EFFD"/>
<path d="M29.7577 28.758C29.5657 28.8688 29.3329 28.9089 29.0938 28.8449C28.8705 28.7836 28.6804 28.6368 28.5646 28.4363C28.4488 28.2358 28.4168 27.9978 28.4754 27.7738L30.8414 18.9435L22.0112 16.5775C21.7879 16.5162 21.5978 16.3694 21.482 16.1689C21.3662 15.9684 21.3342 15.7303 21.3928 15.5063C21.5166 15.0441 22.0017 14.7641 22.4639 14.8879L32.1389 17.4803C32.6011 17.6042 32.8812 18.0892 32.7573 18.5515L30.1649 28.2265C30.1008 28.4656 29.9497 28.6471 29.7577 28.758Z" fill="#7367FF"/>
<path d="M32.1787 19.1823L15.172 29.001C14.7577 29.2402 14.2158 29.095 13.9766 28.6807C13.7374 28.2664 13.8826 27.7245 14.2969 27.4853L31.3036 17.6665C31.7179 17.4273 32.2598 17.5725 32.499 17.9868C32.7382 18.4011 32.593 18.9431 32.1787 19.1823Z" fill="#7367FF"/>
</svg>
