<svg width="62" height="62" viewBox="0 0 62 62" fill="none" xmlns="http://www.w3.org/2000/svg">
<rect width="62" height="62" rx="31" fill="#F0EEFF"/>
<path opacity="0.4" d="M40.0413 27.125C40.0413 28.998 39.4859 30.7159 38.5301 32.1496C37.1351 34.2163 34.9263 35.6759 32.3559 36.0505C31.9168 36.128 31.4647 36.1667 30.9997 36.1667C30.5347 36.1667 30.0826 36.128 29.6434 36.0505C27.073 35.6759 24.8643 34.2163 23.4693 32.1496C22.5134 30.7159 21.958 28.998 21.958 27.125C21.958 22.1263 26.0009 18.0834 30.9997 18.0834C35.9984 18.0834 40.0413 22.1263 40.0413 27.125Z" fill="#4A3AFF"/>
<path d="M42.9478 39.3571L40.8166 39.8608C40.3386 39.977 39.9641 40.3387 39.8607 40.8167L39.4086 42.7154C39.1632 43.7487 37.8457 44.0588 37.1611 43.245L30.9999 36.1667L24.8386 43.2579C24.1541 44.0716 22.8366 43.7616 22.5911 42.7283L22.1391 40.8295C22.0228 40.3516 21.6482 39.9771 21.1832 39.8737L19.052 39.37C18.0703 39.1375 17.7216 37.9104 18.432 37.2L23.4695 32.1625C24.8645 34.2291 27.0732 35.6888 29.6436 36.0633C30.0828 36.1408 30.5349 36.1796 30.9999 36.1796C31.4649 36.1796 31.917 36.1408 32.3561 36.0633C34.9266 35.6888 37.1353 34.2291 38.5303 32.1625L43.5678 37.2C44.2782 37.8975 43.9295 39.1246 42.9478 39.3571Z" fill="#4A3AFF"/>
</svg>
