<svg width="715" height="567" viewBox="0 0 715 567" fill="none" xmlns="http://www.w3.org/2000/svg">
<path d="M613.919 384.47C583.333 384.47 558.538 409.266 558.538 439.852C558.538 470.438 583.333 495.233 613.919 495.233C644.506 495.233 669.301 470.438 669.301 439.852C669.301 409.266 644.506 384.47 613.919 384.47Z" fill="#F4F3FF" stroke="#252525" stroke-linecap="round" stroke-linejoin="round"/>
<path d="M618.04 389.971C587.454 389.971 562.659 414.767 562.659 445.353C562.659 475.939 587.454 500.734 618.04 500.734C648.627 500.734 673.422 475.939 673.422 445.353C673.422 414.767 648.627 389.971 618.04 389.971Z" fill="#F4F3FF" stroke="#252525" stroke-linecap="round" stroke-linejoin="round"/>
<path d="M618.042 395.473C590.494 395.473 568.161 417.805 568.161 445.353C568.161 472.901 590.494 495.233 618.042 495.233C645.59 495.233 667.922 472.901 667.922 445.353C667.922 417.805 645.59 395.473 618.042 395.473Z" fill="#252525" stroke="#252525" stroke-linecap="round" stroke-linejoin="round"/>
<path d="M623.894 482.851C623.894 482.851 629.395 496.613 639.019 506.236C648.642 515.859 687.872 522.066 687.872 522.066C681.538 515.956 675.777 509.277 670.663 502.114C661.729 489.732 632.17 461.52 632.17 461.52C632.17 461.52 646.605 473.902 659.692 475.281C672.78 476.661 705.788 469.78 707.808 469.78C709.829 469.78 695.427 464.279 685.098 459.467C674.769 454.655 634.881 450.518 634.881 450.518C634.881 450.518 652.074 445.706 663.75 441.568C675.426 437.43 686.493 407.181 686.493 407.181C686.493 407.181 671.353 420.942 658.281 424.374C645.21 427.807 626.637 433.998 626.637 433.998C626.637 433.998 638.329 420.926 641.072 411.977C643.814 403.027 641.761 382.401 641.761 382.401C641.761 382.401 635.57 401.648 628 409.234C620.43 416.82 612.202 429.796 612.202 429.796C608.391 423.584 604.943 417.158 601.873 410.549C596.372 398.857 592.94 381.68 592.94 381.68C592.94 381.68 583.99 400.926 584.68 410.549C585.369 420.172 595.682 437.382 595.682 437.382C595.682 437.382 588.802 442.193 578.489 438.072C568.176 433.95 550.277 416.74 550.277 416.74C550.277 416.74 554.415 439.451 561.295 448.384C568.176 457.318 597.751 460.093 597.751 460.093C597.751 460.093 581.231 469.716 570.918 471.785C560.606 473.854 546.86 469.026 546.86 469.026C546.86 469.026 562.675 491.047 575.056 492.427C587.438 493.806 606.011 474.592 606.011 474.592L600.494 502.114C599.13 508.994 601.873 526.172 601.873 526.172C601.873 526.172 609.443 522.05 618.393 508.978C621.012 505.213 622.849 500.961 623.794 496.473C624.739 491.985 624.773 487.353 623.894 482.851Z" fill="#7367FF"/>
<path opacity="0.5" d="M623.894 482.851C623.894 482.851 629.395 496.613 639.019 506.236C648.642 515.859 687.872 522.066 687.872 522.066C681.538 515.956 675.777 509.277 670.663 502.114C661.729 489.732 632.17 461.52 632.17 461.52C632.17 461.52 646.605 473.902 659.692 475.281C672.78 476.661 705.788 469.78 707.808 469.78C709.829 469.78 695.427 464.279 685.098 459.467C674.769 454.655 634.881 450.518 634.881 450.518C634.881 450.518 652.074 445.706 663.75 441.568C675.426 437.43 686.493 407.181 686.493 407.181C686.493 407.181 671.353 420.942 658.281 424.374C645.21 427.807 626.637 433.998 626.637 433.998C626.637 433.998 638.329 420.926 641.072 411.977C643.814 403.027 641.761 382.401 641.761 382.401C641.761 382.401 635.57 401.648 628 409.234C620.43 416.82 612.202 429.796 612.202 429.796C608.391 423.584 604.943 417.158 601.873 410.549C596.372 398.857 592.94 381.68 592.94 381.68C592.94 381.68 583.99 400.926 584.68 410.549C585.369 420.172 595.682 437.382 595.682 437.382C595.682 437.382 588.802 442.193 578.489 438.072C568.176 433.95 550.277 416.74 550.277 416.74C550.277 416.74 554.415 439.451 561.295 448.384C568.176 457.318 597.751 460.093 597.751 460.093C597.751 460.093 581.231 469.716 570.918 471.785C560.606 473.854 546.86 469.026 546.86 469.026C546.86 469.026 562.675 491.047 575.056 492.427C587.438 493.806 606.011 474.592 606.011 474.592L600.494 502.114C599.13 508.994 601.873 526.172 601.873 526.172C601.873 526.172 609.443 522.05 618.393 508.978C621.012 505.213 622.849 500.961 623.794 496.473C624.739 491.985 624.773 487.353 623.894 482.851Z" fill="#222222"/>
<path d="M610.344 503.798C609.863 505.771 609.333 507.743 608.74 509.684" stroke="#252525" stroke-width="0.5" stroke-linecap="round" stroke-linejoin="round"/>
<path d="M656.289 503.798C649.874 499.099 641.854 492.571 637.652 486.973C630.082 476.66 614.941 454.639 614.941 454.639C615.375 469.43 614.203 484.224 611.445 498.762" stroke="#252525" stroke-width="0.5" stroke-linecap="round" stroke-linejoin="round"/>
<path d="M665.852 510.374C665.852 510.374 663.847 509.09 660.848 507.021" stroke="#252525" stroke-width="0.5" stroke-linecap="round" stroke-linejoin="round"/>
<path d="M614.945 454.639C614.945 454.639 588.802 480.782 577.8 482.851C566.797 484.92 557.158 476.661 557.158 476.661" stroke="#252525" stroke-width="0.5" stroke-linecap="round" stroke-linejoin="round"/>
<path d="M661.669 432.779C668.084 428.737 668.613 426.363 668.613 426.363" stroke="#252525" stroke-width="0.5" stroke-linecap="round" stroke-linejoin="round"/>
<path d="M557.844 430.565C557.844 430.565 561.966 440.894 576.417 445.706C590.868 450.517 613.547 451.207 613.547 451.207C613.547 451.207 645.383 440.782 657.027 435.345" stroke="#252525" stroke-width="0.5" stroke-linecap="round" stroke-linejoin="round"/>
<path d="M627.469 455.137C619.77 452.891 613.563 451.207 613.563 451.207" stroke="#252525" stroke-width="0.5" stroke-linecap="round" stroke-linejoin="round"/>
<path d="M675.926 467.358C668.452 466.909 658.829 465.882 653.472 463.589C649.109 461.712 640.512 459.002 632.397 456.58" stroke="#252525" stroke-width="0.5" stroke-linecap="round" stroke-linejoin="round"/>
<path d="M686.492 467.711C686.492 467.711 683.974 467.711 680.269 467.567" stroke="#252525" stroke-width="0.5" stroke-linecap="round" stroke-linejoin="round"/>
<path d="M614.944 447.085C614.944 447.085 634.19 418.215 635.586 411.303C636.412 407.225 636.874 403.081 636.965 398.921" stroke="#252525" stroke-width="0.5" stroke-linecap="round" stroke-linejoin="round"/>
<path d="M606.379 437.991C602.674 433.18 598.231 426.764 596.371 421.632C594.205 415.37 592.595 408.93 591.559 402.385" stroke="#252525" stroke-width="0.5" stroke-linecap="round" stroke-linejoin="round"/>
<path d="M612.203 445.016C612.203 445.016 610.599 443.316 608.53 440.702" stroke="#252525" stroke-width="0.5" stroke-linecap="round" stroke-linejoin="round"/>
<path d="M632.635 476.917C632.635 476.917 636.179 491.352 633.982 504.744C631.785 518.136 603.509 546.092 603.509 546.092C605.08 537.434 605.859 528.651 605.834 519.853C605.834 504.584 613.453 464.423 613.453 464.423C613.453 464.423 608.946 482.899 599.13 491.689C589.314 500.478 558.472 514.143 556.804 515.314C555.136 516.484 563.653 503.621 569.218 493.677C574.783 483.733 604.824 457.061 604.824 457.061C604.824 457.061 588.047 463.188 576.147 466.684C564.246 470.181 537.654 451.993 537.654 451.993C537.654 451.993 557.975 454.335 570.597 449.507C583.22 444.679 601.921 438.873 601.921 438.873C601.921 438.873 584.792 435.072 577.35 429.411C569.908 423.749 559.515 405.737 559.515 405.737C559.515 405.737 575.778 417.783 586.347 419.515C596.917 421.247 611.239 427.037 611.239 427.037C610.696 419.771 609.743 412.543 608.384 405.385C606.027 392.666 598.761 376.691 598.761 376.691C598.761 376.691 617.254 387.117 622.322 395.344C627.39 403.572 629.026 423.556 629.026 423.556C629.026 423.556 637.43 423.46 643.461 414.094C649.492 404.727 653.934 380.316 653.934 380.316C653.934 380.316 663.814 401.166 663.445 412.394C663.076 423.621 640.654 443.156 640.654 443.156C640.654 443.156 659.676 441.343 669.267 437.013C678.858 432.682 687.23 420.734 687.23 420.734C687.23 420.734 687.23 447.839 677.96 456.179C668.69 464.519 642.37 459.708 642.37 459.708L662.9 478.842C668.032 483.653 675.827 499.211 675.827 499.211C675.827 499.211 667.262 500.269 652.378 494.864C648.052 493.35 644.075 490.98 640.683 487.897C637.291 484.814 634.554 481.08 632.635 476.917Z" fill="#7367FF"/>
<path d="M655.859 486.027C657.463 487.358 658.97 488.642 660.574 489.893" stroke="#252525" stroke-width="0.5" stroke-linecap="round" stroke-linejoin="round"/>
<path d="M618.534 512.828C621.02 505.257 623.795 495.297 623.859 488.305C623.987 475.474 623.442 448.801 623.442 448.801C631.721 461.065 641.309 472.391 652.039 482.579" stroke="#252525" stroke-width="0.5" stroke-linecap="round" stroke-linejoin="round"/>
<path d="M614.594 523.75C614.594 523.75 615.492 521.537 616.711 518.12" stroke="#252525" stroke-width="0.5" stroke-linecap="round" stroke-linejoin="round"/>
<path d="M623.447 448.801C623.447 448.801 659.935 454.784 670.071 450.036C680.207 445.289 683.223 433.003 683.223 433.003" stroke="#252525" stroke-width="0.5" stroke-linecap="round" stroke-linejoin="round"/>
<path d="M572.73 458.296C565.208 458.713 563.412 457.19 563.412 457.19" stroke="#252525" stroke-width="0.5" stroke-linecap="round" stroke-linejoin="round"/>
<path d="M655.78 395.938C655.78 395.938 658.443 406.732 649.525 419.066C640.608 431.4 622.548 445.193 622.548 445.193C622.548 445.193 590.615 455.313 577.993 457.671" stroke="#252525" stroke-width="0.5" stroke-linecap="round" stroke-linejoin="round"/>
<path d="M613.55 456.5C618.49 450.197 622.531 445.193 622.531 445.193" stroke="#252525" stroke-width="0.5" stroke-linecap="round" stroke-linejoin="round"/>
<path d="M581.328 494.688C587.134 489.876 594.352 483.461 597.367 478.537C599.821 474.463 605.226 467.31 610.406 460.558" stroke="#252525" stroke-width="0.5" stroke-linecap="round" stroke-linejoin="round"/>
<path d="M572.954 501.151C572.954 501.151 574.991 499.676 577.926 497.398" stroke="#252525" stroke-width="0.5" stroke-linecap="round" stroke-linejoin="round"/>
<path d="M619.035 442.626C619.035 442.626 586.525 430.405 581.408 425.609C578.358 422.78 575.566 419.683 573.068 416.355" stroke="#252525" stroke-width="0.5" stroke-linecap="round" stroke-linejoin="round"/>
<path d="M620.689 430.276C620.913 424.214 620.801 416.435 619.277 411.142C617.387 404.783 614.934 398.606 611.948 392.682" stroke="#252525" stroke-width="0.5" stroke-linecap="round" stroke-linejoin="round"/>
<path d="M620.059 439.419C620.059 439.419 620.315 437.141 620.508 433.773" stroke="#252525" stroke-width="0.5" stroke-linecap="round" stroke-linejoin="round"/>
<path d="M525.602 403.444L162.053 403.444C157.515 403.444 153.162 401.641 149.952 398.432C146.743 395.223 144.94 390.87 144.94 386.331L144.94 150.563C144.94 148.105 145.424 145.671 146.365 143.4C147.305 141.129 148.684 139.066 150.422 137.328C152.16 135.59 154.224 134.211 156.494 133.27C158.765 132.33 161.199 131.846 163.657 131.846L523.998 131.846C526.456 131.846 528.89 132.33 531.16 133.27C533.431 134.211 535.495 135.59 537.233 137.328C538.971 139.066 540.349 141.129 541.29 143.4C542.231 145.671 542.715 148.105 542.715 150.563L542.715 386.331C542.715 390.87 540.912 395.223 537.702 398.432C534.493 401.641 530.14 403.444 525.602 403.444Z" fill="#F4F3FF" stroke="#252525" stroke-linecap="round" stroke-linejoin="round"/>
<path d="M392.544 376.708L414.934 376.708L414.934 362.001L392.544 362.001L392.544 376.708Z" fill="#4A3AFF"/>
<path d="M465.093 285.977L485.879 285.977L485.879 265.351L465.093 265.351L465.093 285.977Z" fill="#4A3AFF"/>
<path d="M373.253 358.472L394.199 358.472L394.199 337.846L373.253 337.846L373.253 358.472Z" fill="#4A3AFF"/>
<path d="M418.485 376.708L440.875 376.708L440.875 362.001L418.485 362.001L418.485 376.708Z" fill="#4A3AFF"/>
<path d="M348.78 358.472L369.727 358.472L369.727 337.846L348.78 337.846L348.78 358.472Z" fill="#4A3AFF"/>
<path d="M366.63 376.708L389.02 376.708L389.02 362.001L366.63 362.001L366.63 376.708Z" fill="#4A3AFF"/>
<path d="M477.652 310.147L517.043 310.147L517.043 289.522L477.652 289.522L477.652 310.147Z" fill="#4A3AFF"/>
<path d="M422.218 358.472L443.164 358.472L443.164 337.846L422.218 337.846L422.218 358.472Z" fill="#4A3AFF"/>
<path d="M489.408 285.977L517.043 285.977L517.043 265.351L489.408 265.351L489.408 285.977Z" fill="#4A3AFF"/>
<path d="M340.696 376.708L363.086 376.708L363.086 362.001L340.696 362.001L340.696 376.708Z" fill="#4A3AFF"/>
<path d="M471.186 358.472L492.133 358.472L492.133 337.846L471.186 337.846L471.186 358.472Z" fill="#4A3AFF"/>
<path d="M470.337 376.708L492.727 376.708L492.727 362.001L470.337 362.001L470.337 376.708Z" fill="#4A3AFF"/>
<path d="M444.399 376.708L466.789 376.708L466.789 362.001L444.399 362.001L444.399 376.708Z" fill="#4A3AFF"/>
<path d="M446.71 358.472L467.656 358.472L467.656 337.846L446.71 337.846L446.71 358.472Z" fill="#4A3AFF"/>
<path d="M397.745 358.472L418.691 358.472L418.691 337.846L397.745 337.846L397.745 358.472Z" fill="#4A3AFF"/>
<path d="M236.973 376.708L259.363 376.708L259.363 362.001L236.973 362.001L236.973 376.708Z" fill="#4A3AFF"/>
<path d="M211.055 376.708L233.445 376.708L233.445 362.001L211.055 362.001L211.055 376.708Z" fill="#4A3AFF"/>
<path d="M226.354 358.472L247.301 358.472L247.301 337.846L226.354 337.846L226.354 358.472Z" fill="#4A3AFF"/>
<path d="M201.866 358.472L222.812 358.472L222.813 337.846L201.866 337.846L201.866 358.472Z" fill="#4A3AFF"/>
<path d="M163.13 285.977L193.973 285.977L193.973 265.351L163.13 265.351L163.13 285.977Z" fill="#4A3AFF"/>
<path d="M185.122 376.708L207.512 376.708L207.512 362.001L185.122 362.001L185.122 376.708Z" fill="#4A3AFF"/>
<path d="M495.663 358.472L517.043 358.472L517.043 337.846L495.663 337.846L495.663 358.472Z" fill="#4A3AFF"/>
<path d="M314.762 376.708L337.152 376.708L337.152 362.001L314.762 362.001L314.762 376.708Z" fill="#4A3AFF"/>
<path d="M288.844 376.708L311.234 376.708L311.234 362.001L288.844 362.001L288.844 376.708Z" fill="#4A3AFF"/>
<path d="M299.796 358.472L320.742 358.472L320.742 337.846L299.796 337.846L299.796 358.472Z" fill="#4A3AFF"/>
<path d="M250.831 358.472L271.777 358.472L271.777 337.846L250.831 337.846L250.831 358.472Z" fill="#4A3AFF"/>
<path d="M324.288 358.472L345.234 358.472L345.234 337.846L324.288 337.846L324.288 358.472Z" fill="#4A3AFF"/>
<path d="M275.323 358.472L296.27 358.472L296.27 337.846L275.323 337.846L275.323 358.472Z" fill="#4A3AFF"/>
<path d="M262.903 376.708L285.293 376.708L285.293 362.001L262.903 362.001L262.903 376.708Z" fill="#4A3AFF"/>
<path d="M294.808 285.977L315.594 285.977L315.594 265.351L294.808 265.351L294.808 285.977Z" fill="#4A3AFF"/>
<path d="M185.745 310.147L206.531 310.147L206.531 289.522L185.745 289.522L185.745 310.147Z" fill="#4A3AFF"/>
<path d="M210.077 310.147L230.863 310.147L230.863 289.522L210.077 289.522L210.077 310.147Z" fill="#4A3AFF"/>
<path d="M197.519 285.977L218.305 285.977L218.305 265.351L197.519 265.351L197.519 285.977Z" fill="#4A3AFF"/>
<path d="M221.831 285.977L242.617 285.977L242.617 265.351L221.831 265.351L221.831 285.977Z" fill="#4A3AFF"/>
<path d="M270.491 285.977L291.277 285.977L291.277 265.351L270.491 265.351L270.491 285.977Z" fill="#4A3AFF"/>
<path d="M246.163 285.977L266.949 285.977L266.949 265.351L246.163 265.351L246.163 285.977Z" fill="#4A3AFF"/>
<path d="M234.405 310.147L255.191 310.147L255.191 289.522L234.405 289.522L234.405 310.147Z" fill="#4A3AFF"/>
<path d="M163.114 376.708L181.574 376.708L181.574 362.001L163.114 362.001L163.114 376.708Z" fill="#4A3AFF"/>
<path d="M496.257 376.708L517.043 376.708L517.043 362.001L496.257 362.001L496.257 376.708Z" fill="#4A3AFF"/>
<path d="M163.118 261.823L517.043 261.823L517.043 240.379L163.118 240.379L163.118 261.823Z" fill="#4A3AFF"/>
<path d="M163.127 358.472L198.332 358.472L198.332 337.846L163.127 337.846L163.127 358.472Z" fill="#4A3AFF"/>
<path d="M163.129 310.147L182.215 310.147L182.215 289.522L163.129 289.522L163.129 310.147Z" fill="#4A3AFF"/>
<path d="M188.09 313.836L191.635 313.836L191.635 334.302L212.421 334.302L212.421 313.836L215.949 313.836L215.949 334.302L236.735 334.302L236.735 313.836L240.28 313.836L240.28 334.302L261.066 334.302L261.066 313.836L264.611 313.836L264.611 334.302L285.397 334.302L285.397 313.836L288.925 313.836L288.925 334.302L309.711 334.302L309.711 313.836L313.256 313.836L313.256 334.302L334.042 334.302L334.042 313.836L337.586 313.836L337.586 334.302L358.373 334.302L358.373 313.836L361.901 313.836L361.901 334.302L382.687 334.302L382.687 313.836L386.232 313.836L386.232 334.302L407.018 334.302L407.018 313.836L410.562 313.836L410.562 334.302L431.348 334.302L431.348 313.836L434.877 313.836L434.877 334.302L455.663 334.302L455.663 313.836L459.208 313.836L459.208 334.302L479.994 334.302L479.994 313.836L483.538 313.836L483.538 334.302L517.043 334.302L517.043 313.676L163.134 313.676L163.134 334.302L188.09 334.302L188.09 313.836Z" fill="#4A3AFF"/>
<path d="M356.03 310.147L376.816 310.147L376.816 289.522L356.03 289.522L356.03 310.147Z" fill="#4A3AFF"/>
<path d="M283.05 310.147L303.836 310.147L303.836 289.522L283.05 289.522L283.05 310.147Z" fill="#4A3AFF"/>
<path d="M404.671 310.147L425.457 310.147L425.457 289.522L404.671 289.522L404.671 310.147Z" fill="#4A3AFF"/>
<path d="M392.116 285.977L412.902 285.977L412.902 265.351L392.116 265.351L392.116 285.977Z" fill="#4A3AFF"/>
<path d="M380.355 310.147L401.141 310.147L401.141 289.522L380.355 289.522L380.355 310.147Z" fill="#4A3AFF"/>
<path d="M429.003 310.147L449.789 310.147L449.789 289.522L429.003 289.522L429.003 310.147Z" fill="#4A3AFF"/>
<path d="M440.761 285.977L461.547 285.977L461.547 265.351L440.761 265.351L440.761 285.977Z" fill="#4A3AFF"/>
<path d="M416.444 285.977L437.23 285.977L437.23 265.351L416.444 265.351L416.444 285.977Z" fill="#4A3AFF"/>
<path d="M331.698 310.147L352.484 310.147L352.484 289.522L331.698 289.522L331.698 310.147Z" fill="#4A3AFF"/>
<path d="M319.136 285.977L339.922 285.977L339.922 265.351L319.136 265.351L319.136 285.977Z" fill="#4A3AFF"/>
<path d="M307.386 310.147L328.172 310.147L328.172 289.522L307.386 289.522L307.386 310.147Z" fill="#4A3AFF"/>
<path d="M367.784 285.977L388.57 285.977L388.57 265.351L367.784 265.351L367.784 285.977Z" fill="#4A3AFF"/>
<path d="M343.472 285.977L364.258 285.977L364.258 265.351L343.472 265.351L343.472 285.977Z" fill="#4A3AFF"/>
<path d="M453.335 310.147L474.121 310.147L474.121 289.522L453.335 289.522L453.335 310.147Z" fill="#4A3AFF"/>
<path d="M122.232 551L567.562 551C569.746 550.998 571.9 550.494 573.858 549.527C575.816 548.56 577.525 547.156 578.854 545.422C580.183 543.689 581.095 541.673 581.52 539.531C581.946 537.389 581.873 535.178 581.307 533.069L548.748 411.849C547.937 408.823 546.151 406.149 543.666 404.241C541.181 402.333 538.136 401.298 535.003 401.295L489.55 401.295L489.55 392.907L198.143 392.907L198.143 401.247L154.839 401.247C151.706 401.249 148.662 402.285 146.177 404.193C143.692 406.101 141.905 408.775 141.094 411.8L108.535 533.021C107.962 535.129 107.882 537.341 108.3 539.486C108.719 541.631 109.625 543.65 110.949 545.389C112.274 547.127 113.98 548.537 115.937 549.51C117.893 550.483 120.047 550.993 122.232 551Z" fill="#252525"/>
<path d="M172.594 411.993L517.201 411.993L551.668 536.02L138.143 536.02L172.594 411.993Z" fill="#F4F3FF"/>
<path d="M494.328 466.428L494.328 464.824L500.406 464.824L500.406 466.428L494.328 466.428Z" fill="#4A3AFF"/>
<path d="M486.757 466.428L486.757 464.824L492.852 464.824L492.852 466.428L486.757 466.428Z" fill="#4A3AFF"/>
<path d="M479.188 466.428L479.188 464.824L485.234 464.824L485.234 466.428L479.188 466.428Z" fill="#4A3AFF"/>
<path d="M471.632 466.428L471.632 464.824L477.711 464.824L477.711 466.428L471.632 466.428Z" fill="#4A3AFF"/>
<path d="M464.062 466.428L464.062 464.824L470.156 464.824L470.156 466.428L464.062 466.428Z" fill="#4A3AFF"/>
<path d="M456.495 466.428L456.495 464.824L462.59 464.824L462.59 466.428L456.495 466.428Z" fill="#4A3AFF"/>
<path d="M448.937 466.428L448.937 464.824L455.016 464.824L455.016 466.428L448.937 466.428Z" fill="#4A3AFF"/>
<path d="M441.448 457.976L448.152 475.843L446.548 475.843L439.844 457.976L441.448 457.976Z" fill="#4A3AFF"/>
<path d="M500.457 492.443L500.457 490.839L506.535 490.839L506.535 492.443L500.457 492.443Z" fill="#4A3AFF"/>
<path d="M492.886 492.443L492.886 490.839L498.965 490.839L498.965 492.443L492.886 492.443Z" fill="#4A3AFF"/>
<path d="M485.233 492.443L485.233 490.839L491.328 490.839L491.328 492.443L485.233 492.443Z" fill="#4A3AFF"/>
<path d="M477.745 492.443L477.745 490.839L483.84 490.839L483.84 492.443L477.745 492.443Z" fill="#4A3AFF"/>
<path d="M470.195 492.443L470.195 490.839L476.273 490.839L476.273 492.443L470.195 492.443Z" fill="#4A3AFF"/>
<path d="M457.39 492.443L457.39 490.839L463.484 490.839L463.484 492.443L457.39 492.443Z" fill="#4A3AFF"/>
<path d="M449.839 492.443L449.839 490.839L455.918 490.839L455.918 492.443L449.839 492.443Z" fill="#4A3AFF"/>
<path d="M442.269 492.443L442.269 490.839L448.348 490.839L448.348 492.443L442.269 492.443Z" fill="#4A3AFF"/>
<path d="M434.698 492.443L434.698 490.839L440.793 490.839L440.793 492.443L434.698 492.443Z" fill="#4A3AFF"/>
<path d="M427.144 492.443L427.144 490.839L433.223 490.839L433.223 492.443L427.144 492.443Z" fill="#4A3AFF"/>
<path d="M419.574 492.443L419.574 490.839L425.652 490.839L425.652 492.443L419.574 492.443Z" fill="#4A3AFF"/>
<path d="M412.007 492.443L412.007 490.839L418.102 490.839L418.102 492.443L412.007 492.443Z" fill="#4A3AFF"/>
<path d="M399.222 492.443L399.222 490.839L405.301 490.839L405.301 492.443L399.222 492.443Z" fill="#4A3AFF"/>
<path d="M391.647 492.443L391.647 490.839L397.742 490.839L397.742 492.443L391.647 492.443Z" fill="#4A3AFF"/>
<path d="M384.081 492.443L384.081 490.839L390.176 490.839L390.176 492.443L384.081 492.443Z" fill="#4A3AFF"/>
<path d="M371.363 492.443L371.363 490.839L377.441 490.839L377.441 492.443L371.363 492.443Z" fill="#4A3AFF"/>
<path d="M363.727 492.443L363.727 490.839L369.758 490.839L369.758 492.443L363.727 492.443Z" fill="#4A3AFF"/>
<path d="M356.155 492.443L356.155 490.839L362.25 490.839L362.25 492.443L356.155 492.443Z" fill="#4A3AFF"/>
<path d="M327.703 492.443L327.703 490.839L333.781 490.839L333.781 492.443L327.703 492.443Z" fill="#4A3AFF"/>
<path d="M320.136 492.443L320.136 490.839L326.23 490.839L326.23 492.443L320.136 492.443Z" fill="#4A3AFF"/>
<path d="M312.562 492.443L312.562 490.839L318.656 490.839L318.656 492.443L312.562 492.443Z" fill="#4A3AFF"/>
<path d="M305.007 492.443L305.007 490.839L311.086 490.839L311.086 492.443L305.007 492.443Z" fill="#4A3AFF"/>
<path d="M297.44 492.443L297.44 490.839L303.535 490.839L303.535 492.443L297.44 492.443Z" fill="#4A3AFF"/>
<path d="M284.656 492.443L284.656 490.839L290.734 490.839L290.734 492.443L284.656 492.443Z" fill="#4A3AFF"/>
<path d="M277.086 492.443L277.086 490.839L283.148 490.839L283.148 492.443L277.086 492.443Z" fill="#4A3AFF"/>
<path d="M269.515 492.443L269.515 490.839L275.609 490.839L275.609 492.443L269.515 492.443Z" fill="#4A3AFF"/>
<path d="M256.734 492.443L256.734 490.839L262.813 490.839L262.812 492.443L256.734 492.443Z" fill="#4A3AFF"/>
<path d="M243.933 492.443L243.933 490.839L250.027 490.839L250.027 492.443L243.933 492.443Z" fill="#4A3AFF"/>
<path d="M119.92 125.667L132.996 75.2202L120.629 71.5906L119.92 125.667Z" fill="#F4F3FF" stroke="#252525" stroke-linecap="round" stroke-linejoin="round"/>
<path d="M114.051 178.986C115.526 181.253 116.065 184.004 115.554 186.66C114.882 191.634 108.881 192.77 108.881 192.77C108.881 192.77 107.574 193.76 102.771 191.939C97.9683 190.119 60.8298 185.084 37.0973 181.87C13.3648 178.656 5.678 180.733 6.00796 172.582C6.33792 164.431 27.1619 91.278 27.4797 88.9805C27.7974 86.683 114.051 178.986 114.051 178.986Z" fill="#F4F3FF" stroke="#252525" stroke-miterlimit="10"/>
<path d="M14.2286 165.45L114.062 178.983L130.195 59.9796L30.3609 46.446L14.2286 165.45Z" fill="#F4F3FF" stroke="#252525" stroke-linecap="round" stroke-linejoin="round"/>
<path d="M32.7891 141.712L26.9843 140.918" stroke="#252525" stroke-width="0.5" stroke-linecap="round" stroke-linejoin="round"/>
<path d="M69.1406 146.638L37.3791 142.324" stroke="#252525" stroke-width="0.5" stroke-linecap="round" stroke-linejoin="round"/>
<path d="M107.641 151.856L73.7405 147.261" stroke="#252525" stroke-width="0.5" stroke-linecap="round" stroke-linejoin="round"/>
<path d="M41.8789 132.168L28.4117 130.335" stroke="#252525" stroke-width="0.5" stroke-linecap="round" stroke-linejoin="round"/>
<path d="M109.07 141.272L55.6539 134.038" stroke="#252525" stroke-width="0.5" stroke-linecap="round" stroke-linejoin="round"/>
<path d="M81.9648 126.828L29.8438 119.765" stroke="#252525" stroke-width="0.5" stroke-linecap="round" stroke-linejoin="round"/>
<path d="M110.508 130.702L87.3253 127.549" stroke="#252525" stroke-width="0.5" stroke-linecap="round" stroke-linejoin="round"/>
<path d="M64.6484 113.703L31.2861 109.181" stroke="#252525" stroke-width="0.5" stroke-linecap="round" stroke-linejoin="round"/>
<path d="M92.9609 117.552L68.4708 114.228" stroke="#252525" stroke-width="0.5" stroke-linecap="round" stroke-linejoin="round"/>
<path d="M111.941 120.119L97.1789 118.114" stroke="#252525" stroke-width="0.5" stroke-linecap="round" stroke-linejoin="round"/>
<path d="M44.6523 100.224L32.7128 98.6105" stroke="#252525" stroke-width="0.5" stroke-linecap="round" stroke-linejoin="round"/>
<path d="M113.371 109.536L52.6834 101.311" stroke="#252525" stroke-width="0.5" stroke-linecap="round" stroke-linejoin="round"/>
<path d="M67.8984 92.6099L34.145 88.0271" stroke="#252525" stroke-width="0.5" stroke-linecap="round" stroke-linejoin="round"/>
<path d="M114.809 98.9648L73.6372 93.38" stroke="#252525" stroke-width="0.5" stroke-linecap="round" stroke-linejoin="round"/>
<path d="M57.4727 80.4136L35.5855 77.4562" stroke="#252525" stroke-width="0.5" stroke-linecap="round" stroke-linejoin="round"/>
<path d="M101.859 86.4385L62.8266 81.1469" stroke="#252525" stroke-width="0.5" stroke-linecap="round" stroke-linejoin="round"/>
<path d="M116.242 88.3818L106.453 87.062" stroke="#252525" stroke-width="0.5" stroke-linecap="round" stroke-linejoin="round"/>
<path d="M14.2227 165.445C14.2227 165.445 12.5118 182.041 6.40145 175.368" stroke="#252525" stroke-linecap="round" stroke-linejoin="round"/>
<path d="M48.0735 37.6048L48.1834 27.0584L54.3305 35.735L79.0039 118.725L72.7469 120.595L48.0735 37.6048Z" fill="#F4F3FF" stroke="#252525" stroke-linecap="round" stroke-linejoin="round"/>
<path d="M75.203 117.049L78.2422 116.163L54.7586 35.6475L51.7194 36.5339L75.203 117.049Z" fill="#7367FF" stroke="#252525" stroke-width="0.5" stroke-linecap="round" stroke-linejoin="round"/>
<path d="M48.0716 37.5806L54.3164 35.723L48.1816 27.0586L48.0716 37.5806Z" stroke="#252525" stroke-linecap="round" stroke-linejoin="round"/>
<path d="M51.2539 31.3969L48.1865 27.0586L48.1254 32.3257L51.2539 31.3969Z" fill="#252525" stroke="#252525" stroke-linecap="round" stroke-linejoin="round"/>
<path d="M78.6369 128.954C79.4648 128.705 80.1607 128.139 80.5728 127.379C80.9849 126.619 81.0797 125.727 80.8366 124.897L79.0035 118.726L72.7465 120.583L74.5796 126.755C74.8286 127.583 75.3949 128.278 76.155 128.69C76.915 129.103 77.8072 129.197 78.6369 128.954Z" fill="#F4F3FF" stroke="#252525" stroke-linecap="round" stroke-linejoin="round"/>
<path d="M78.6369 128.954C79.4648 128.705 80.1607 128.139 80.5728 127.379C80.9849 126.619 81.0797 125.727 80.8366 124.897L79.9567 121.952L73.712 123.809L74.5796 126.755C74.8286 127.583 75.3949 128.278 76.155 128.69C76.915 129.103 77.8072 129.197 78.6369 128.954Z" fill="#252525" stroke="#252525" stroke-linecap="round" stroke-linejoin="round"/>
<path d="M492.214 297.493C493.241 296.05 494.251 294.542 495.262 292.954" stroke="#F4F3FF" stroke-linecap="round" stroke-linejoin="round"/>
<path d="M475.439 316.804C479.908 312.661 484.043 308.173 487.805 303.379" stroke="#F4F3FF" stroke-linecap="round" stroke-linejoin="round"/>
<path d="M493.639 308.287C498.021 302.141 501.991 295.711 505.523 289.041" stroke="#F4F3FF" stroke-linecap="round" stroke-linejoin="round"/>
<path d="M380.519 273.018C381.53 271.575 382.556 270.067 383.566 268.495" stroke="#F4F3FF" stroke-linecap="round" stroke-linejoin="round"/>
<path d="M363.74 292.329C368.201 288.183 372.33 283.695 376.09 278.904" stroke="#F4F3FF" stroke-linecap="round" stroke-linejoin="round"/>
<path d="M381.932 283.844C386.311 277.663 390.281 271.202 393.816 264.502" stroke="#F4F3FF" stroke-linecap="round" stroke-linejoin="round"/>
<path d="M220.425 312.714C221.884 313.708 223.424 314.702 225.012 315.697" stroke="#F4F3FF" stroke-linecap="round" stroke-linejoin="round"/>
<path d="M200.856 296.226C205.074 300.619 209.627 304.678 214.473 308.367" stroke="#F4F3FF" stroke-linecap="round" stroke-linejoin="round"/>
<path d="M209.645 314.318C215.887 318.604 222.402 322.477 229.148 325.914" stroke="#F4F3FF" stroke-linecap="round" stroke-linejoin="round"/>
<path d="M385.391 213.274C386.225 207.243 387.476 198.839 388.727 193.851" stroke="#252525" stroke-linecap="round" stroke-linejoin="round"/>
<path d="M384.463 220.604C384.463 220.604 384.591 219.465 384.832 217.62" stroke="#252525" stroke-linecap="round" stroke-linejoin="round"/>
<path d="M380.182 203.49C381.933 197.648 384.077 191.931 386.598 186.377" stroke="#252525" stroke-linecap="round" stroke-linejoin="round"/>
<path d="M299.992 194.942C299.992 194.942 298.918 181.036 291.444 173.546" stroke="#252525" stroke-linecap="round" stroke-linejoin="round"/>
<path d="M301.062 181.036C301.062 181.036 297.855 171.413 291.439 167.131" stroke="#252525" stroke-linecap="round" stroke-linejoin="round"/>
<g style="mix-blend-mode:multiply">
<path d="M518.914 106.713C518.914 106.713 511.793 112.439 511.793 161.662C511.793 210.884 503.597 246.843 493.493 262.609C483.388 278.375 473.942 284.694 469.515 284.694C465.088 284.694 468.264 279.017 474.567 270.821C480.87 262.625 486.548 258.198 489.082 248.094C491.616 237.99 491.6 225.383 488.441 226.65C485.281 227.917 480.245 253.146 475.834 262.609C471.424 272.072 460.678 284.069 454.374 289.746C448.071 295.424 434.182 312.457 427.879 308.046C421.575 303.636 425.345 297.317 429.13 294.799C432.915 292.28 448.071 277.156 455 267.661C461.929 258.166 466.355 234.221 462.57 233.595C458.785 232.97 447.43 268.287 441.127 275.857C434.823 283.427 409.579 304.261 403.901 304.887C398.223 305.512 397.582 296.691 402.634 292.264C407.686 287.838 424.719 268.928 430.397 257.573C436.074 246.217 438.609 225.383 433.604 230.435C428.6 235.488 420.357 256.306 413.412 263.251C406.467 270.195 385.649 292.264 380.597 289.746C375.544 287.228 376.812 280.909 381.222 276.498C385.633 272.088 402.682 248.094 407.093 235.488C411.503 222.881 416.571 187.532 414.037 192.568C411.503 197.604 403.307 223.491 398.897 234.269C394.486 245.047 385.649 250.035 384.382 244.999C383.115 239.962 385.649 237.428 388.808 226.057C391.968 214.685 392.016 184.356 401.415 167.387C410.814 150.419 448.536 114.107 453.573 101.501C457.221 92.8177 461.576 84.4494 466.596 76.4803" fill="#252525"/>
</g>
<g style="mix-blend-mode:multiply">
<path d="M168.392 102.447C168.392 102.447 175.689 112.439 175.689 161.662C175.689 210.884 183.901 246.843 193.989 262.609C204.078 278.375 213.556 284.694 217.967 284.694C222.378 284.694 219.234 279.017 212.915 270.821C206.596 262.625 200.934 258.198 198.48 248.094C196.026 237.99 195.946 225.383 199.106 226.65C202.265 227.917 207.301 253.146 211.728 262.609C216.155 272.072 226.868 284.069 233.172 289.746C239.475 295.424 253.364 312.457 259.684 308.046C266.003 303.636 262.202 297.317 258.417 294.799C254.631 292.28 239.491 277.156 232.546 267.661C225.601 258.166 221.191 234.221 224.976 233.595C228.761 232.97 240.068 268.287 246.372 275.825C252.675 283.363 277.936 304.229 283.613 304.855C289.291 305.48 289.916 296.659 284.864 292.232C279.812 287.806 262.779 268.896 257.101 257.541C251.424 246.185 248.906 225.351 253.894 230.403C258.882 235.456 267.142 256.274 274.07 263.218C280.999 270.163 301.833 292.232 306.885 289.714C311.938 287.196 310.67 280.877 306.26 276.466C301.849 272.056 284.8 248.062 280.389 235.455C275.979 222.849 270.927 187.5 273.445 192.536C275.963 197.572 284.175 223.459 288.585 234.237C292.996 245.015 301.833 250.003 303.1 244.966C304.367 239.93 301.833 237.396 298.69 226.025C295.546 214.653 295.482 184.324 286.067 167.355C276.653 150.386 240.004 117.267 234.952 104.644C229.9 92.0218 220.758 72.1338 220.758 72.1338" fill="#252525"/>
</g>
<path d="M521.32 94.588C521.32 94.588 511.858 125.494 511.858 174.781C511.858 224.068 503.662 259.963 493.557 275.729C483.453 291.495 474.006 297.814 469.58 297.814C465.153 297.814 468.329 292.136 474.632 283.94C480.935 275.745 486.613 271.318 489.147 261.23C491.681 251.141 491.665 238.503 488.505 239.77C485.346 241.037 480.309 266.266 475.899 275.729C471.488 285.191 460.742 297.188 454.439 302.866C448.136 308.544 434.246 325.577 427.943 321.166C421.64 316.755 425.409 310.436 429.194 307.918C432.979 305.4 448.136 290.276 455.065 280.781C461.993 271.286 466.42 247.34 462.635 246.715C458.85 246.089 447.494 281.406 441.191 288.993C434.888 296.579 409.643 317.381 403.965 318.006C398.288 318.632 397.646 309.811 402.698 305.384C407.751 300.957 424.784 282.048 430.461 270.692C436.139 259.337 438.673 238.503 433.669 243.555C428.665 248.607 420.421 269.425 413.476 276.37C406.532 283.315 385.713 305.384 380.661 302.866C375.609 300.348 376.876 294.029 381.287 289.618C385.697 285.207 402.747 261.23 407.157 248.607C411.568 235.985 416.636 200.652 414.102 205.704C411.568 210.756 403.372 236.61 398.961 247.404C394.551 258.198 385.713 263.186 384.446 258.134C383.179 253.082 385.713 250.564 388.873 239.209C392.033 227.853 392.081 197.508 401.479 180.523C410.878 163.538 447.542 117.427 452.595 104.805C457.647 92.1822 469.002 64.4192 469.002 64.4192" fill="#F4F3FF"/>
<path d="M521.32 94.588C521.32 94.588 511.858 125.494 511.858 174.781C511.858 224.068 503.662 259.963 493.557 275.729C483.453 291.495 474.006 297.814 469.58 297.814C465.153 297.814 468.329 292.136 474.632 283.94C480.935 275.745 486.613 271.318 489.147 261.23C491.681 251.141 491.665 238.503 488.505 239.77C485.346 241.037 480.309 266.266 475.899 275.729C471.488 285.191 460.742 297.188 454.439 302.866C448.136 308.544 434.246 325.577 427.943 321.166C421.64 316.755 425.409 310.436 429.194 307.918C432.979 305.4 448.136 290.276 455.065 280.781C461.993 271.286 466.42 247.34 462.635 246.715C458.85 246.089 447.494 281.406 441.191 288.993C434.888 296.579 409.643 317.381 403.965 318.006C398.288 318.632 397.646 309.811 402.698 305.384C407.751 300.957 424.784 282.048 430.461 270.692C436.139 259.337 438.673 238.503 433.669 243.555C428.665 248.607 420.421 269.425 413.476 276.37C406.532 283.315 385.713 305.384 380.661 302.866C375.609 300.348 376.876 294.029 381.287 289.618C385.697 285.207 402.747 261.23 407.157 248.607C411.568 235.985 416.636 200.652 414.102 205.704C411.568 210.756 403.372 236.61 398.961 247.404C394.551 258.198 385.713 263.186 384.446 258.134C383.179 253.082 385.713 250.564 388.873 239.209C392.033 227.853 392.081 197.508 401.479 180.523C410.878 163.538 447.542 117.427 452.595 104.805C457.647 92.1822 469.002 64.4193 469.002 64.4193" stroke="#252525" stroke-linecap="round" stroke-linejoin="round"/>
<path d="M166.241 94.588C166.241 94.588 175.704 125.494 175.704 174.781C175.704 224.068 183.915 259.963 194.004 275.729C204.092 291.495 213.571 297.814 217.981 297.814C222.392 297.814 219.248 292.136 212.929 283.94C206.61 275.745 200.948 271.318 198.494 261.23C196.041 251.141 195.96 238.503 199.12 239.77C202.28 241.037 207.316 266.266 211.742 275.729C216.169 285.191 226.883 297.188 233.186 302.866C239.489 308.544 253.379 325.577 259.698 321.166C266.017 316.755 262.216 310.436 258.431 307.918C254.646 305.4 239.505 290.276 232.561 280.781C225.616 271.286 221.205 247.34 224.99 246.715C228.775 246.089 240.131 281.406 246.434 288.993C252.737 296.579 277.998 317.381 283.676 318.006C289.353 318.632 289.979 309.811 284.927 305.384C279.875 300.957 262.842 282.048 257.164 270.692C251.486 259.337 248.968 238.503 253.956 243.555C258.944 248.607 267.204 269.425 274.133 276.37C281.061 283.315 301.896 305.384 306.948 302.866C312 300.348 310.733 294.029 306.322 289.618C301.912 285.207 284.863 261.23 280.452 248.607C276.041 235.985 270.989 200.652 273.507 205.704C276.025 210.756 284.237 236.61 288.648 247.404C293.058 258.198 301.896 263.186 303.163 258.134C304.43 253.082 301.896 250.564 298.752 239.209C295.609 227.853 295.544 197.508 286.13 180.523C276.715 163.538 240.067 117.427 235.014 104.805C229.962 92.1822 218.607 64.4192 218.607 64.4192" fill="#F4F3FF"/>
<path d="M166.241 94.588C166.241 94.588 175.704 125.494 175.704 174.781C175.704 224.068 183.915 259.963 194.004 275.729C204.092 291.495 213.571 297.814 217.981 297.814C222.392 297.814 219.248 292.136 212.929 283.94C206.61 275.745 200.948 271.318 198.494 261.23C196.041 251.141 195.96 238.503 199.12 239.77C202.28 241.037 207.316 266.266 211.742 275.729C216.169 285.191 226.883 297.188 233.186 302.866C239.489 308.544 253.379 325.577 259.698 321.166C266.017 316.755 262.216 310.436 258.431 307.918C254.646 305.4 239.505 290.276 232.561 280.781C225.616 271.286 221.205 247.34 224.99 246.715C228.775 246.089 240.131 281.406 246.434 288.993C252.737 296.579 277.998 317.381 283.676 318.006C289.353 318.632 289.979 309.811 284.927 305.384C279.875 300.957 262.842 282.048 257.164 270.692C251.486 259.337 248.968 238.503 253.956 243.555C258.944 248.607 267.204 269.425 274.133 276.37C281.061 283.315 301.896 305.384 306.948 302.866C312 300.348 310.733 294.029 306.322 289.618C301.912 285.207 284.863 261.23 280.452 248.607C276.041 235.985 270.989 200.652 273.507 205.704C276.025 210.756 284.237 236.61 288.648 247.404C293.058 258.198 301.896 263.186 303.163 258.134C304.43 253.082 301.896 250.564 298.752 239.209C295.609 227.853 295.544 197.508 286.13 180.523C276.715 163.538 240.067 117.427 235.014 104.805C229.962 92.1822 218.607 64.4193 218.607 64.4193" stroke="#252525" stroke-linecap="round" stroke-linejoin="round"/>
<path d="M561.258 -1.64388L465.026 -1.64388C463.775 3.16772 462.203 8.55671 460.214 14.3948C452.644 37.0734 428.137 65.4298 428.137 65.4298C445.702 80.8991 466.341 92.476 488.699 99.3997C525.588 110.755 552.597 107.419 552.597 107.419C547.625 86.9194 547.078 65.5957 550.993 44.8682C555.805 21.516 559.012 6.74435 561.258 -1.64388Z" fill="#252525" stroke="#252525" stroke-linecap="round" stroke-linejoin="round"/>
<path d="M223.167 -1.64425L123.182 -1.64426C126.39 6.66376 133.318 24.7072 140.247 42.7507C149.71 67.322 145.925 100.394 149.71 100.394C153.495 100.394 196.013 103.233 216.8 96.6246C237.586 90.0167 261.227 71.1071 261.227 71.1071C250.525 58.6722 241.325 45.0202 233.817 30.4331C228.99 20.2075 225.415 9.43733 223.167 -1.64425Z" fill="#252525"/>
<path d="M476.09 94.6149C476.709 97.0534 485.92 93.3813 485.92 93.3813C485.92 93.3813 482.84 105 487.748 105C492.656 105 493.275 96.3936 493.275 96.3936C493.275 96.3936 502.486 100.051 502.486 94.5576C502.486 89.0638 496.354 89.1642 496.354 89.1642C496.354 89.1642 503.723 79.984 498.197 78.1623C492.67 76.3406 489 83.0536 489 83.0536C489 83.0536 485.316 76.9288 480.365 79.3816C475.414 81.8344 479.141 87.3282 479.141 87.3282C479.141 87.3282 475.486 92.1621 476.09 94.6149ZM488.367 85.4348C488.83 85.5375 489.255 85.7685 489.592 86.1013C489.929 86.4341 490.165 86.8551 490.273 87.3158C490.38 87.7765 490.355 88.2581 490.2 88.7051C490.045 89.1521 489.767 89.5464 489.397 89.8425C489.027 90.1386 488.58 90.3245 488.109 90.3787C487.637 90.433 487.16 90.3533 486.732 90.149C486.304 89.9447 485.942 89.624 485.689 89.2239C485.436 88.8238 485.302 88.3606 485.301 87.8876C485.405 87.1676 485.779 86.5137 486.348 86.0584C486.918 85.603 487.639 85.3801 488.367 85.4348ZM462.59 26.0506C463.209 28.4891 472.42 24.817 472.42 24.817C472.42 24.817 469.34 36.4356 474.262 36.4356C479.184 36.4356 479.775 27.8292 479.775 27.8292C479.775 27.8292 488.986 31.5013 488.986 26.0076C488.986 20.5138 482.84 20.4995 482.84 20.4995C482.84 20.4995 490.209 11.3193 484.682 9.48329C479.156 7.64726 475.486 14.3889 475.486 14.3889C475.486 14.3889 471.801 8.26403 466.85 10.7169C461.899 13.1697 465.627 18.6634 465.627 18.6634C465.627 18.6634 461.986 23.6695 462.59 26.0506ZM474.867 16.8704C475.33 16.9731 475.755 17.2042 476.092 17.537C476.429 17.8698 476.665 18.2908 476.773 18.7514C476.88 19.2121 476.855 19.6937 476.7 20.1407C476.545 20.5878 476.267 20.9821 475.897 21.2782C475.527 21.5743 475.08 21.7601 474.609 21.8144C474.137 21.8686 473.66 21.789 473.232 21.5847C472.804 21.3804 472.442 21.0597 472.189 20.6596C471.936 20.2595 471.802 19.7962 471.801 19.3233C471.905 18.6088 472.282 17.962 472.853 17.5183C473.425 17.0745 474.146 16.868 474.867 16.9421L474.867 16.8704ZM516.604 16.8704C517.223 19.3233 526.42 15.6512 526.42 15.6512C526.42 15.6512 523.354 27.2698 528.262 27.2699C533.17 27.2699 533.789 18.6635 533.789 18.6635C533.789 18.6635 543 22.3355 543 16.8274C543 11.3193 536.854 11.3193 536.854 11.3193C536.854 11.3193 544.223 2.15349 538.697 0.317459C533.17 -1.51858 529.5 5.20877 529.5 5.20877C529.5 5.20877 525.816 -0.901773 520.865 1.5367C515.914 3.97519 519.627 9.4833 519.627 9.4833C519.627 9.4833 515.986 14.5037 516.59 16.9422L516.604 16.8704ZM528.881 7.70461C529.345 7.80746 529.77 8.03901 530.108 8.37247C530.445 8.70594 530.681 9.12773 530.788 9.58914C530.895 10.0506 530.869 10.5327 530.713 10.98C530.557 11.4273 530.277 11.8214 529.905 12.1169C529.534 12.4123 529.086 12.597 528.614 12.6496C528.142 12.7022 527.664 12.6206 527.236 12.4142C526.809 12.2078 526.448 11.885 526.197 11.4831C525.946 11.0813 525.813 10.6167 525.816 10.1431C525.923 9.43399 526.299 8.79301 526.867 8.35256C527.435 7.9121 528.151 7.70583 528.867 7.77636L528.881 7.70461ZM449.723 64.5786L442.973 64.5786C438.066 64.5786 435 59.0705 435 59.0705C445.42 56.0869 449.709 64.6503 449.709 64.6503L449.723 64.5786ZM456.473 16.8704L449.723 16.8704C444.816 16.8704 441.75 11.3623 441.75 11.3623C452.17 8.3788 456.459 16.9421 456.459 16.9421L456.473 16.8704ZM515.367 26.0506L508.617 26.0506C503.709 26.0506 500.643 20.5425 500.643 20.5425C511.078 17.559 515.367 26.0506 515.367 26.0506ZM482.739 69.2117L478.796 63.7466C475.917 59.759 478.638 54.0788 478.638 54.0788C487.215 60.8061 482.739 69.2834 482.739 69.2834L482.739 69.2117ZM516.504 50.9375L513.424 56.9189C511.164 61.2221 504.86 61.4803 504.86 61.4803C506.976 50.8371 516.504 50.9375 516.504 50.9375Z" fill="#F4F3FF"/>
<path d="M188.043 82.6579C188.661 85.0864 197.858 81.4293 197.858 81.4293C197.858 81.4293 194.782 93.0005 199.683 93.0005C204.583 93.0005 205.201 84.4292 205.201 84.4292C205.201 84.4292 214.398 88.072 214.398 82.6007C214.398 77.1294 208.262 77.1151 208.262 77.1151C208.262 77.1151 215.62 67.9724 210.102 66.1439C204.583 64.3154 200.919 71.0295 200.919 71.0295C200.919 71.0295 197.24 64.9296 192.296 67.3724C187.353 69.8152 191.075 75.2866 191.075 75.2866C191.075 75.2866 187.439 80.2293 188.043 82.6579ZM200.301 73.5151C200.763 73.6174 201.187 73.8476 201.524 74.179C201.861 74.5105 202.097 74.9297 202.204 75.3885C202.312 75.8473 202.286 76.3269 202.132 76.7721C201.977 77.2173 201.699 77.61 201.329 77.9049C200.96 78.1998 200.514 78.3849 200.043 78.4389C199.572 78.4929 199.096 78.4136 198.668 78.2101C198.241 78.0067 197.88 77.6873 197.627 77.2888C197.375 76.8904 197.24 76.429 197.24 75.958C197.327 75.2334 197.696 74.5716 198.268 74.1148C198.841 73.658 199.57 73.4427 200.301 73.5151ZM159.258 35.1445C159.862 37.5873 169.059 33.9302 169.059 33.9302C169.059 33.9302 165.998 45.5014 170.898 45.5014C175.799 45.5014 176.402 36.9302 176.402 36.9302C176.402 36.9302 185.6 40.5873 185.6 35.1017C185.6 29.6161 179.478 29.6161 179.478 29.6161C179.478 29.6161 186.821 20.4877 181.303 18.6591C175.784 16.8306 172.12 23.5305 172.12 23.5305C172.12 23.5305 168.441 17.4449 163.498 19.8734C158.554 22.3019 162.276 27.7875 162.276 27.7875C162.276 27.7875 158.64 32.716 159.258 35.1445ZM171.502 25.9447C171.965 26.0471 172.39 26.2777 172.727 26.6098C173.064 26.9419 173.299 27.362 173.406 27.8215C173.513 28.2811 173.487 28.7613 173.331 29.2067C173.175 29.6522 172.895 30.0447 172.525 30.3389C172.154 30.6331 171.707 30.8171 171.235 30.8695C170.764 30.9219 170.287 30.8406 169.86 30.635C169.433 30.4295 169.073 30.108 168.822 29.7078C168.571 29.3076 168.439 28.8449 168.441 28.3732C168.531 27.6513 168.902 26.993 169.474 26.5392C170.046 26.0854 170.774 25.872 171.502 25.9447ZM189.882 16.802C190.5 19.2448 199.683 15.5878 199.683 15.5878C199.683 15.5878 196.622 27.159 201.522 27.159C206.423 27.159 207.041 18.5877 207.041 18.5877C207.041 18.5877 216.238 22.2448 216.238 16.7592C216.238 11.2736 210.102 11.2736 210.102 11.2736C210.102 11.2736 217.459 2.14519 211.941 0.316648C206.423 -1.51189 202.758 5.18799 202.758 5.18799C202.758 5.18799 199.079 -0.897601 194.136 1.53092C189.192 3.95944 192.9 9.44506 192.9 9.44506C192.9 9.44506 189.322 14.4449 189.882 16.8734L189.882 16.802ZM202.14 7.67363C202.603 7.77606 203.028 8.00667 203.365 8.33877C203.702 8.67088 203.937 9.09095 204.044 9.55047C204.151 10.01 204.125 10.4902 203.969 10.9357C203.813 11.3811 203.534 11.7736 203.163 12.0679C202.792 12.3621 202.345 12.546 201.873 12.5984C201.402 12.6508 200.925 12.5695 200.498 12.364C200.071 12.1584 199.711 11.837 199.46 11.4367C199.209 11.0365 199.077 10.5738 199.079 10.1022C199.186 9.39323 199.564 8.75264 200.134 8.31362C200.705 7.8746 201.423 7.67096 202.14 7.74508L202.14 7.67363ZM161.701 52.7442L154.961 52.7442C150.061 52.7442 147 47.2586 147 47.2586C157.419 44.2872 161.701 52.8156 161.701 52.8156L161.701 52.7442ZM234 18.0877L227.26 18.0877C222.36 18.0877 219.299 12.6164 219.299 12.6164C229.718 9.55934 234 18.0877 234 18.0877ZM194.682 57.3726L190.744 51.9299C187.87 47.9585 190.586 42.3015 190.586 42.3015C199.151 48.9871 194.682 57.3726 194.682 57.3726ZM154.832 23.3162L150.909 17.8734C148.035 13.9164 150.751 8.24504 150.751 8.24504C159.316 14.8878 154.832 23.3162 154.832 23.3162ZM228.453 39.1587L225.378 45.1158C223.121 49.4014 216.755 49.6585 216.755 49.6585C218.882 39.0587 228.467 39.1587 228.467 39.1587L228.453 39.1587Z" fill="#F4F3FF"/>
</svg>
