<svg width="52" height="52" viewBox="0 0 52 52" fill="none" xmlns="http://www.w3.org/2000/svg">
<path opacity="0.4" d="M26.2612 27.69C26.1095 27.6683 25.9145 27.6683 25.7412 27.69C21.9279 27.56 18.8945 24.44 18.8945 20.605C18.8945 16.6833 22.0579 13.4983 26.0012 13.4983C29.9229 13.4983 33.1079 16.6833 33.1079 20.605C33.0862 24.44 30.0745 27.56 26.2612 27.69Z" stroke="#4A3AFF" stroke-width="2" stroke-linecap="round" stroke-linejoin="round"/>
<path opacity="0.34" d="M40.6051 41.9899C36.7484 45.5216 31.6351 47.6666 26.0018 47.6666C20.3684 47.6666 15.2551 45.5216 11.3984 41.9899C11.6151 39.9532 12.9151 37.9599 15.2334 36.3999C21.1701 32.4565 30.8768 32.4565 36.7701 36.3999C39.0884 37.9599 40.3884 39.9532 40.6051 41.9899Z" stroke="#4A3AFF" stroke-width="2" stroke-linecap="round" stroke-linejoin="round"/>
<path d="M25.9987 47.6666C37.9649 47.6666 47.6654 37.9661 47.6654 25.9999C47.6654 14.0337 37.9649 4.33325 25.9987 4.33325C14.0325 4.33325 4.33203 14.0337 4.33203 25.9999C4.33203 37.9661 14.0325 47.6666 25.9987 47.6666Z" stroke="#4A3AFF" stroke-width="2" stroke-linecap="round" stroke-linejoin="round"/>
</svg>
