<svg width="16" height="16" viewBox="0 0 16 16" fill="none" xmlns="http://www.w3.org/2000/svg">
<path d="M15.55 5.37304L0.892344 0.0395572C0.773347 -0.00339669 0.64459 -0.011564 0.521125 0.01601C0.397661 0.0435841 0.284593 0.10576 0.195143 0.195268C0.105692 0.284775 0.0435562 0.397916 0.0159998 0.521459C-0.0115567 0.645002 -0.00339452 0.773842 0.0395319 0.892914L5.3696 15.56C5.41616 15.6888 5.50126 15.8002 5.61332 15.8789C5.72538 15.9577 5.85896 15.9999 5.99589 16C6.12932 16.0001 6.25973 15.9602 6.3702 15.8853C6.48068 15.8104 6.56614 15.704 6.61551 15.58L9.17394 9.17981L15.57 6.61974C15.6964 6.57176 15.8053 6.48644 15.8821 6.3751C15.9589 6.26376 16 6.13167 16 5.99639C16 5.8611 15.9589 5.72902 15.8821 5.61768C15.8053 5.50634 15.6964 5.42102 15.57 5.37304H15.55Z" fill="#9747FF"/>
</svg>
