<svg width="92" height="35" viewBox="0 0 92 35" fill="none" xmlns="http://www.w3.org/2000/svg">
<g clip-path="url(#clip0_2540_39370)">
<path d="M51.9193 -42.1665H32.2526C7.66927 -42.1665 -2.16406 -32.3332 -2.16406 -7.74984V21.7502C-2.16406 46.3335 7.66927 56.1668 32.2526 56.1668H61.7526C86.3359 56.1668 96.1693 46.3335 96.1693 21.7502V-2.83317" stroke="#4A3AFF" stroke-width="1.5" stroke-linecap="round" stroke-linejoin="round"/>
<path opacity="0.4" d="M21 35C21 35 22.2469 29.2945 25.3735 26.8972C28.5 24.5 34.8626 24.5864 38.3535 27.5856L39.976 29.0114C43.811 32.3056 50.006 32.3056 53.841 29.0114L74.2943 11.4589C78.1293 8.16474 84.3243 8.16474 88.1593 11.4589C91.9943 14.7531 94 16 94 16L96 22L99 35.5" fill="#4A3AFF"/>
<path opacity="0.5" d="M16 19C19.3137 19 22 16.3137 22 13C22 9.68629 19.3137 7 16 7C12.6863 7 10 9.68629 10 13C10 16.3137 12.6863 19 16 19Z" fill="#0000FF"/>
</g>
<rect x="1" y="1" width="90" height="33.1395" rx="7" stroke="#EAE8FF"/>
<defs>
<clipPath id="clip0_2540_39370">
<rect x="1" y="1" width="90" height="33.1395" rx="7" fill="white"/>
</clipPath>
</defs>
</svg>
