<svg width="18" height="19" viewBox="0 0 18 19" fill="none" xmlns="http://www.w3.org/2000/svg">
<path d="M15.75 4.55493C13.2525 4.30743 10.74 4.17993 8.235 4.17993C6.75 4.17993 5.265 4.25493 3.78 4.40493L2.25 4.55493" stroke="#4A3AFF" stroke-width="1.5" stroke-linecap="round" stroke-linejoin="round"/>
<path opacity="0.34" d="M6.375 3.79732L6.54 2.81482C6.66 2.10232 6.75 1.56982 8.0175 1.56982H9.9825C11.25 1.56982 11.3475 2.13232 11.46 2.82232L11.625 3.79732" stroke="#4A3AFF" stroke-width="1.5" stroke-linecap="round" stroke-linejoin="round"/>
<path d="M14.1383 6.9248L13.6508 14.4773C13.5683 15.6548 13.5008 16.5698 11.4083 16.5698H6.59328C4.50078 16.5698 4.43328 15.6548 4.35078 14.4773L3.86328 6.9248" stroke="#4A3AFF" stroke-width="1.5" stroke-linecap="round" stroke-linejoin="round"/>
<path opacity="0.34" d="M7.74609 12.4448H10.2436" stroke="#4A3AFF" stroke-width="1.5" stroke-linecap="round" stroke-linejoin="round"/>
<path opacity="0.34" d="M7.125 9.44482H10.875" stroke="#4A3AFF" stroke-width="1.5" stroke-linecap="round" stroke-linejoin="round"/>
</svg>
