<svg width="85" height="85" viewBox="0 0 85 85" fill="none" xmlns="http://www.w3.org/2000/svg">
<rect width="85" height="85" rx="42.5" fill="#F4F3FF"/>
<path fill-rule="evenodd" clip-rule="evenodd" d="M38.6435 37.5642C39.0001 37.3259 39.4194 37.1987 39.8483 37.1987C40.1237 37.1987 40.347 37.422 40.347 37.6973C40.347 37.9727 40.1237 38.196 39.8483 38.196C39.6167 38.196 39.3902 38.2647 39.1975 38.3934C39.0049 38.5221 38.8548 38.7051 38.7661 38.9191C38.6774 39.1332 38.6542 39.3687 38.6994 39.5959C38.7446 39.8232 38.8562 40.0319 39.02 40.1957C39.1839 40.3595 39.3926 40.4711 39.6198 40.5163C39.847 40.5615 40.0826 40.5383 40.2966 40.4496C40.5107 40.361 40.6936 40.2108 40.8223 40.0182C40.9511 39.8256 41.0198 39.5991 41.0198 39.3674C41.0198 39.092 41.243 38.8688 41.5184 38.8688C41.7938 38.8688 42.017 39.092 42.017 39.3674C42.017 39.7963 41.8898 40.2156 41.6515 40.5722C41.4132 40.9289 41.0745 41.2068 40.6783 41.371C40.282 41.5351 39.8459 41.5781 39.4253 41.4944C39.0046 41.4107 38.6182 41.2041 38.3149 40.9009C38.0116 40.5976 37.805 40.2111 37.7214 39.7905C37.6377 39.3698 37.6806 38.9337 37.8448 38.5375C38.0089 38.1412 38.2869 37.8025 38.6435 37.5642Z" fill="#7367FF"/>
<path fill-rule="evenodd" clip-rule="evenodd" d="M50.682 40.0903C50.9534 40.0903 51.1735 40.3149 51.1735 40.592V44.7927C51.1735 46.9416 50.7578 48.5763 49.7007 49.6615C48.6428 50.7474 47.0486 51.1746 44.9538 51.1746H40.0439C37.9498 51.1746 36.3556 50.7476 35.2976 49.6618C34.2402 48.5767 33.8242 46.942 33.8242 44.7927V43.1037C33.8242 42.8266 34.0442 42.602 34.3157 42.602C34.5871 42.602 34.8071 42.8266 34.8071 43.1037V44.7927C34.8071 46.844 35.2102 48.1494 35.9944 48.9542C36.778 49.7584 38.0479 50.1712 40.0439 50.1712H44.9538C46.9504 50.1712 48.2203 49.7583 49.0037 48.954C49.7878 48.1491 50.1906 46.8437 50.1906 44.7927V40.592C50.1906 40.3149 50.4106 40.0903 50.682 40.0903Z" fill="#7367FF"/>
<path fill-rule="evenodd" clip-rule="evenodd" d="M35.318 35.3072C36.3901 34.2436 38.0055 33.8252 40.1291 33.8252H43.449C43.7227 33.8252 43.9446 34.0453 43.9446 34.3169C43.9446 34.5885 43.7227 34.8086 43.449 34.8086H40.1291C38.1033 34.8086 36.8142 35.2136 36.0189 36.0026C35.2237 36.7916 34.8154 38.0706 34.8154 40.0804C34.8154 40.352 34.5935 40.5721 34.3198 40.5721C34.0461 40.5721 33.8242 40.352 33.8242 40.0804C33.8242 37.9736 34.246 36.3709 35.318 35.3072Z" fill="#7367FF"/>
<path fill-rule="evenodd" clip-rule="evenodd" d="M44.9062 36.7168C44.9062 36.4506 45.1372 36.2349 45.4221 36.2349H50.1735C50.4584 36.2349 50.6893 36.4506 50.6893 36.7168C50.6893 36.9829 50.4584 37.1987 50.1735 37.1987H45.4221C45.1372 37.1987 44.9062 36.9829 44.9062 36.7168Z" fill="#7367FF"/>
<path fill-rule="evenodd" clip-rule="evenodd" d="M47.8022 33.8252C48.0684 33.8252 48.2842 34.0562 48.2842 34.3411V39.0924C48.2842 39.3773 48.0684 39.6083 47.8022 39.6083C47.5361 39.6083 47.3203 39.3773 47.3203 39.0924V34.3411C47.3203 34.0562 47.5361 33.8252 47.8022 33.8252Z" fill="#7367FF"/>
<path fill-rule="evenodd" clip-rule="evenodd" d="M47.3405 43.3072L43.9298 46.2597L43.9208 46.2673C43.5061 46.6092 42.9858 46.7961 42.4489 46.7961C41.9119 46.7961 41.3916 46.6092 40.977 46.2673C40.9725 46.2636 40.9681 46.2599 40.9638 46.256L40.7005 46.0229C40.48 45.845 40.2092 45.7411 39.9264 45.726C39.6418 45.7108 39.3598 45.7863 39.1207 45.9416L35.0744 48.6802C34.8486 48.8331 34.5418 48.7735 34.3893 48.5472C34.2367 48.3209 34.2962 48.0135 34.522 47.8606L38.5785 45.1151C38.9936 44.8438 39.484 44.7119 39.9789 44.7383C40.4738 44.7648 40.9475 44.9483 41.3314 45.2623C41.3364 45.2664 41.3413 45.2705 41.3461 45.2748L41.6102 45.5086C41.8472 45.7016 42.1433 45.807 42.4489 45.807C42.7552 45.807 43.0522 45.701 43.2895 45.507L46.7002 42.5545L46.7093 42.5469C47.1239 42.205 47.6442 42.0181 48.1812 42.0181C48.7181 42.0181 49.2384 42.205 49.6531 42.5469L49.6621 42.5545L51.0011 43.7137C51.2074 43.8923 51.2301 44.2046 51.052 44.4112C50.8738 44.6179 50.5622 44.6407 50.3559 44.4622L49.0218 43.3072C48.7845 43.1132 48.4875 43.0071 48.1812 43.0071C47.8748 43.0071 47.5779 43.1132 47.3405 43.3072Z" fill="#7367FF"/>
</svg>
