<svg width="24" height="24" viewBox="0 0 24 24" fill="none" xmlns="http://www.w3.org/2000/svg">
<path d="M22 12V9C22 4 20 2 15 2H9C4 2 2 4 2 9V15C2 20 4 22 9 22H12" stroke="#4A3AFF" stroke-width="1.5" stroke-linecap="round" stroke-linejoin="round"/>
<path opacity="0.4" d="M20.9616 17.84L19.3316 18.39C18.8816 18.54 18.5216 18.89 18.3716 19.35L17.8216 20.98C17.3516 22.39 15.3716 22.36 14.9316 20.95L13.0816 15C12.7216 13.82 13.8116 12.72 14.9816 13.09L20.9416 14.94C22.3416 15.38 22.3616 17.37 20.9616 17.84Z" stroke="#4A3AFF" stroke-width="1.5" stroke-linecap="round" stroke-linejoin="round"/>
</svg>
