<svg width="20" height="20" viewBox="0 0 20 20" fill="none" xmlns="http://www.w3.org/2000/svg">
<path fill-rule="evenodd" clip-rule="evenodd" d="M2.52568 7.82488C2.5 8.43259 2.5 9.14828 2.5 9.99999C2.5 12.6666 2.5 14 3.28817 14.8601C3.34713 14.9244 3.40888 14.9862 3.47323 15.0452C4.33336 15.8333 5.66669 15.8333 8.33333 15.8333H11.6667C14.3333 15.8333 15.6666 15.8333 16.5268 15.0452C16.5911 14.9862 16.6529 14.9244 16.7118 14.8601C17.5 14 17.5 12.6666 17.5 9.99999C17.5 9.14828 17.5 8.43259 17.4743 7.82488L10.9713 11.4377C10.3672 11.7733 9.63276 11.7733 9.02871 11.4377L2.52568 7.82488ZM2.89131 5.74631C2.92319 5.75991 2.95468 5.7753 2.98564 5.7925L10 9.68936L17.0144 5.7925C17.0453 5.7753 17.0768 5.75992 17.1087 5.74631C17.0058 5.51849 16.8759 5.31894 16.7118 5.13989C16.6529 5.07554 16.5911 5.01379 16.5268 4.95482C15.6666 4.16666 14.3333 4.16666 11.6667 4.16666H8.33333C5.66669 4.16666 4.33336 4.16666 3.47323 4.95482C3.40888 5.01379 3.34713 5.07554 3.28817 5.13989C3.1241 5.31894 2.99418 5.51849 2.89131 5.74631Z" fill="#F4F3FF"/>
</svg>
