<svg width="20" height="20" viewBox="0 0 20 20" fill="none" xmlns="http://www.w3.org/2000/svg">
<path fill-rule="evenodd" clip-rule="evenodd" d="M10.3989 16.4678C11.7153 15.7735 15.8327 13.2735 15.8327 9.16665C15.8327 5.94499 13.221 3.33331 9.99935 3.33331C6.77769 3.33331 4.16602 5.94499 4.16602 9.16665C4.16602 13.2735 8.28343 15.7735 9.59982 16.4678C9.85177 16.6007 10.1469 16.6007 10.3989 16.4678ZM9.99935 11.6666C11.3801 11.6666 12.4993 10.5474 12.4993 9.16665C12.4993 7.78593 11.3801 6.66665 9.99935 6.66665C8.61864 6.66665 7.49935 7.78593 7.49935 9.16665C7.49935 10.5474 8.61864 11.6666 9.99935 11.6666Z" fill="#F4F3FF"/>
</svg>
