<svg width="20" height="20" viewBox="0 0 20 20" fill="none" xmlns="http://www.w3.org/2000/svg">
<path fill-rule="evenodd" clip-rule="evenodd" d="M2.52568 7.82497C2.5 8.43268 2.5 9.14837 2.5 10.0001C2.5 12.6667 2.5 14.0001 3.28817 14.8602C3.34713 14.9245 3.40888 14.9863 3.47323 15.0452C4.33336 15.8334 5.66669 15.8334 8.33333 15.8334H11.6667C14.3333 15.8334 15.6666 15.8334 16.5268 15.0452C16.5911 14.9863 16.6529 14.9245 16.7118 14.8602C17.5 14.0001 17.5 12.6667 17.5 10.0001C17.5 9.14837 17.5 8.43268 17.4743 7.82497L10.9713 11.4378C10.3672 11.7734 9.63276 11.7733 9.02871 11.4378L2.52568 7.82497ZM2.89131 5.7464C2.92319 5.76 2.95468 5.77539 2.98564 5.79259L10 9.68946L17.0144 5.79259C17.0453 5.77539 17.0768 5.76001 17.1087 5.74641C17.0058 5.51859 16.8759 5.31903 16.7118 5.13998C16.6529 5.07563 16.5911 5.01388 16.5268 4.95492C15.6666 4.16675 14.3333 4.16675 11.6667 4.16675H8.33333C5.66669 4.16675 4.33336 4.16675 3.47323 4.95492C3.40888 5.01388 3.34713 5.07563 3.28817 5.13998C3.1241 5.31903 2.99418 5.51858 2.89131 5.7464Z" fill="#788592"/>
</svg>
