<svg width="20" height="20" viewBox="0 0 20 20" fill="none" xmlns="http://www.w3.org/2000/svg">
<path fill-rule="evenodd" clip-rule="evenodd" d="M10.3996 16.4677C11.7159 15.7734 15.8334 13.2735 15.8334 9.16658C15.8334 5.94492 13.2217 3.33325 10 3.33325C6.77836 3.33325 4.16669 5.94492 4.16669 9.16658C4.16669 13.2735 8.2841 15.7734 9.60049 16.4677C9.85244 16.6006 10.1476 16.6006 10.3996 16.4677ZM10 11.6666C11.3807 11.6666 12.5 10.5473 12.5 9.16659C12.5 7.78587 11.3807 6.66659 10 6.66659C8.61931 6.66659 7.50002 7.78587 7.50002 9.16659C7.50002 10.5473 8.61931 11.6666 10 11.6666Z" fill="#788592"/>
</svg>
